{
	"asset":{
		"generator":"Khronos glTF Blender I/O v4.1.50",
		"version":"2.0"
	},
	"extensionsUsed":[
		"KHR_lights_punctual"
	],
	"extensionsRequired":[
		"KHR_lights_punctual"
	],
	"extensions":{
		"KHR_lights_punctual":{
			"lights":[
				{
					"color":[
						1,
						1,
						1
					],
					"intensity":6830,
					"type":"directional",
					"name":"Sun"
				},
				{
					"color":[
						1,
						1,
						1
					],
					"intensity":3250.2142525387353,
					"type":"point",
					"name":"Point"
				}
			]
		}
	},
	"scene":0,
	"scenes":[
		{
			"name":"Scene",
			"nodes":[
				7,
				8,
				9,
				10
			]
		}
	],
	"nodes":[
		{
			"mesh":0,
			"name":"Cube.001",
			"rotation":[
				-0.3518402874469757,
				-0.2834717333316803,
				-0.11270231753587723,
				0.8849577903747559
			],
			"scale":[
				1.0000001192092896,
				0.9999998807907104,
				1.0000001192092896
			],
			"translation":[
				0.18548272550106049,
				1.345393180847168,
				0.187562957406044
			]
		},
		{
			"children":[
				0
			],
			"name":"Bone.003",
			"rotation":[
				0.03945226967334747,
				-4.854404878074092e-08,
				0.028164751827716827,
				0.998824417591095
			],
			"scale":[
				0.9999999403953552,
				0.9999999403953552,
				1
			],
			"translation":[
				1.4901161193847656e-08,
				1.3326056003570557,
				8.940696716308594e-08
			]
		},
		{
			"children":[
				1
			],
			"name":"Bone.001",
			"rotation":[
				-0.40869009494781494,
				-9.31155508254733e-09,
				0.004163962788879871,
				0.9126637578010559
			],
			"scale":[
				0.9999999403953552,
				1.0000001192092896,
				1
			],
			"translation":[
				-1.4901161193847656e-08,
				0.9999998807907104,
				1.0058283805847168e-07
			]
		},
		{
			"mesh":1,
			"name":"Cube",
			"rotation":[
				-0.9118792414665222,
				-0.05732520669698715,
				-0.1365526169538498,
				0.3828098773956299
			],
			"scale":[
				1,
				0.9999998807907104,
				0.9999998211860657
			],
			"translation":[
				0.24575839936733246,
				1.3237477540969849,
				0.08521785587072372
			]
		},
		{
			"children":[
				3
			],
			"name":"Bone.004",
			"rotation":[
				0.14051313698291779,
				6.590817491769485e-08,
				0.043048638850450516,
				0.9891424775123596
			],
			"translation":[
				-4.470348358154297e-08,
				0.9418569803237915,
				-9.685754776000977e-08
			]
		},
		{
			"children":[
				4
			],
			"name":"Bone.002",
			"rotation":[
				0.21556471288204193,
				0.0058646728284657,
				0.31258389353752136,
				0.9250885248184204
			],
			"scale":[
				1,
				1.0000001192092896,
				1
			],
			"translation":[
				-1.4901161193847656e-08,
				0.9999998807907104,
				1.0058283805847168e-07
			]
		},
		{
			"children":[
				2,
				5
			],
			"name":"Bone",
			"rotation":[
				-4.190951585769653e-09,
				5.122274160385132e-09,
				9.313225746154785e-10,
				1
			],
			"scale":[
				1,
				1,
				1.0000001192092896
			],
			"translation":[
				0,
				-8.940696716308594e-08,
				2.2351741790771484e-08
			]
		},
		{
			"children":[
				6
			],
			"name":"Armature",
			"rotation":[
				0.6486002802848816,
				0.3050713539123535,
				-0.03150277957320213,
				0.6966037154197693
			],
			"translation":[
				-0.6995694041252136,
				1.21286940574646,
				-2.6577062606811523
			]
		},
		{
			"extensions":{
				"KHR_lights_punctual":{
					"light":0
				}
			},
			"name":"Sun",
			"rotation":[
				-0.9008088707923889,
				0.37317711114883423,
				-0.06764432787895203,
				0.21143954992294312
			],
			"translation":[
				-4.712313652038574,
				5.318631172180176,
				4.207561492919922
			]
		},
		{
			"camera":0,
			"name":"Camera",
			"rotation":[
				-0.1490619033575058,
				0.7376152276992798,
				0.18802675604820251,
				0.6311500072479248
			],
			"translation":[
				16.481271743774414,
				11.366475105285645,
				-3.111992597579956
			]
		},
		{
			"extensions":{
				"KHR_lights_punctual":{
					"light":1
				}
			},
			"name":"Point",
			"rotation":[
				-0.7071068286895752,
				0,
				0,
				0.7071068286895752
			],
			"translation":[
				1.761677622795105,
				4.513961315155029,
				-0.29092690348625183
			]
		}
	],
	"cameras":[
		{
			"name":"Camera.001",
			"perspective":{
				"aspectRatio":1.7777777777777777,
				"yfov":0.39959652046304894,
				"zfar":1000,
				"znear":0.10000000149011612
			},
			"type":"perspective"
		}
	],
	"animations":[
		{
			"channels":[
				{
					"sampler":0,
					"target":{
						"node":6,
						"path":"translation"
					}
				},
				{
					"sampler":1,
					"target":{
						"node":6,
						"path":"rotation"
					}
				},
				{
					"sampler":2,
					"target":{
						"node":6,
						"path":"scale"
					}
				},
				{
					"sampler":3,
					"target":{
						"node":2,
						"path":"translation"
					}
				},
				{
					"sampler":4,
					"target":{
						"node":2,
						"path":"rotation"
					}
				},
				{
					"sampler":5,
					"target":{
						"node":2,
						"path":"scale"
					}
				},
				{
					"sampler":6,
					"target":{
						"node":1,
						"path":"translation"
					}
				},
				{
					"sampler":7,
					"target":{
						"node":1,
						"path":"rotation"
					}
				},
				{
					"sampler":8,
					"target":{
						"node":1,
						"path":"scale"
					}
				},
				{
					"sampler":9,
					"target":{
						"node":5,
						"path":"translation"
					}
				},
				{
					"sampler":10,
					"target":{
						"node":5,
						"path":"rotation"
					}
				},
				{
					"sampler":11,
					"target":{
						"node":5,
						"path":"scale"
					}
				},
				{
					"sampler":12,
					"target":{
						"node":4,
						"path":"translation"
					}
				},
				{
					"sampler":13,
					"target":{
						"node":4,
						"path":"rotation"
					}
				},
				{
					"sampler":14,
					"target":{
						"node":4,
						"path":"scale"
					}
				}
			],
			"name":"ArmatureAction",
			"samplers":[
				{
					"input":7,
					"interpolation":"STEP",
					"output":8
				},
				{
					"input":7,
					"interpolation":"STEP",
					"output":9
				},
				{
					"input":7,
					"interpolation":"STEP",
					"output":10
				},
				{
					"input":7,
					"interpolation":"STEP",
					"output":11
				},
				{
					"input":12,
					"interpolation":"LINEAR",
					"output":13
				},
				{
					"input":7,
					"interpolation":"STEP",
					"output":14
				},
				{
					"input":7,
					"interpolation":"STEP",
					"output":15
				},
				{
					"input":12,
					"interpolation":"LINEAR",
					"output":16
				},
				{
					"input":7,
					"interpolation":"STEP",
					"output":17
				},
				{
					"input":7,
					"interpolation":"STEP",
					"output":18
				},
				{
					"input":12,
					"interpolation":"LINEAR",
					"output":19
				},
				{
					"input":7,
					"interpolation":"STEP",
					"output":20
				},
				{
					"input":7,
					"interpolation":"STEP",
					"output":21
				},
				{
					"input":12,
					"interpolation":"LINEAR",
					"output":22
				},
				{
					"input":7,
					"interpolation":"STEP",
					"output":23
				}
			]
		}
	],
	"materials":[
		{
			"doubleSided":true,
			"name":"Material",
			"pbrMetallicRoughness":{
				"metallicFactor":0,
				"roughnessFactor":0.5
			}
		}
	],
	"meshes":[
		{
			"name":"Cube.001",
			"primitives":[
				{
					"attributes":{
						"POSITION":0,
						"NORMAL":1,
						"TEXCOORD_0":2
					},
					"indices":3,
					"material":0
				}
			]
		},
		{
			"name":"Cube",
			"primitives":[
				{
					"attributes":{
						"POSITION":4,
						"NORMAL":5,
						"TEXCOORD_0":6
					},
					"indices":3,
					"material":0
				}
			]
		}
	],
	"skins":[
		{
			"inverseBindMatrices":24,
			"joints":[
				6,
				2,
				1,
				5,
				4
			],
			"name":"Armature"
		}
	],
	"accessors":[
		{
			"bufferView":0,
			"componentType":5126,
			"count":24,
			"max":[
				1,
				1,
				1
			],
			"min":[
				-1,
				-1,
				-1
			],
			"type":"VEC3"
		},
		{
			"bufferView":1,
			"componentType":5126,
			"count":24,
			"type":"VEC3"
		},
		{
			"bufferView":2,
			"componentType":5126,
			"count":24,
			"type":"VEC2"
		},
		{
			"bufferView":3,
			"componentType":5123,
			"count":36,
			"type":"SCALAR"
		},
		{
			"bufferView":4,
			"componentType":5126,
			"count":24,
			"max":[
				1,
				1,
				1
			],
			"min":[
				-1,
				-1,
				-1
			],
			"type":"VEC3"
		},
		{
			"bufferView":5,
			"componentType":5126,
			"count":24,
			"type":"VEC3"
		},
		{
			"bufferView":6,
			"componentType":5126,
			"count":24,
			"type":"VEC2"
		},
		{
			"bufferView":7,
			"componentType":5126,
			"count":2,
			"max":[
				1.6666666666666667
			],
			"min":[
				0.041666666666666664
			],
			"type":"SCALAR"
		},
		{
			"bufferView":8,
			"componentType":5126,
			"count":2,
			"type":"VEC3"
		},
		{
			"bufferView":9,
			"componentType":5126,
			"count":2,
			"type":"VEC4"
		},
		{
			"bufferView":10,
			"componentType":5126,
			"count":2,
			"type":"VEC3"
		},
		{
			"bufferView":11,
			"componentType":5126,
			"count":2,
			"type":"VEC3"
		},
		{
			"bufferView":12,
			"componentType":5126,
			"count":40,
			"max":[
				1.6666666666666667
			],
			"min":[
				0.041666666666666664
			],
			"type":"SCALAR"
		},
		{
			"bufferView":13,
			"componentType":5126,
			"count":40,
			"type":"VEC4"
		},
		{
			"bufferView":14,
			"componentType":5126,
			"count":2,
			"type":"VEC3"
		},
		{
			"bufferView":15,
			"componentType":5126,
			"count":2,
			"type":"VEC3"
		},
		{
			"bufferView":16,
			"componentType":5126,
			"count":40,
			"type":"VEC4"
		},
		{
			"bufferView":17,
			"componentType":5126,
			"count":2,
			"type":"VEC3"
		},
		{
			"bufferView":18,
			"componentType":5126,
			"count":2,
			"type":"VEC3"
		},
		{
			"bufferView":19,
			"componentType":5126,
			"count":40,
			"type":"VEC4"
		},
		{
			"bufferView":20,
			"componentType":5126,
			"count":2,
			"type":"VEC3"
		},
		{
			"bufferView":21,
			"componentType":5126,
			"count":2,
			"type":"VEC3"
		},
		{
			"bufferView":22,
			"componentType":5126,
			"count":40,
			"type":"VEC4"
		},
		{
			"bufferView":23,
			"componentType":5126,
			"count":2,
			"type":"VEC3"
		},
		{
			"bufferView":24,
			"componentType":5126,
			"count":5,
			"type":"MAT4"
		}
	],
	"bufferViews":[
		{
			"buffer":0,
			"byteLength":288,
			"byteOffset":0,
			"target":34962
		},
		{
			"buffer":0,
			"byteLength":288,
			"byteOffset":288,
			"target":34962
		},
		{
			"buffer":0,
			"byteLength":192,
			"byteOffset":576,
			"target":34962
		},
		{
			"buffer":0,
			"byteLength":72,
			"byteOffset":768,
			"target":34963
		},
		{
			"buffer":0,
			"byteLength":288,
			"byteOffset":840,
			"target":34962
		},
		{
			"buffer":0,
			"byteLength":288,
			"byteOffset":1128,
			"target":34962
		},
		{
			"buffer":0,
			"byteLength":192,
			"byteOffset":1416,
			"target":34962
		},
		{
			"buffer":0,
			"byteLength":8,
			"byteOffset":1608
		},
		{
			"buffer":0,
			"byteLength":24,
			"byteOffset":1616
		},
		{
			"buffer":0,
			"byteLength":32,
			"byteOffset":1640
		},
		{
			"buffer":0,
			"byteLength":24,
			"byteOffset":1672
		},
		{
			"buffer":0,
			"byteLength":24,
			"byteOffset":1696
		},
		{
			"buffer":0,
			"byteLength":160,
			"byteOffset":1720
		},
		{
			"buffer":0,
			"byteLength":640,
			"byteOffset":1880
		},
		{
			"buffer":0,
			"byteLength":24,
			"byteOffset":2520
		},
		{
			"buffer":0,
			"byteLength":24,
			"byteOffset":2544
		},
		{
			"buffer":0,
			"byteLength":640,
			"byteOffset":2568
		},
		{
			"buffer":0,
			"byteLength":24,
			"byteOffset":3208
		},
		{
			"buffer":0,
			"byteLength":24,
			"byteOffset":3232
		},
		{
			"buffer":0,
			"byteLength":640,
			"byteOffset":3256
		},
		{
			"buffer":0,
			"byteLength":24,
			"byteOffset":3896
		},
		{
			"buffer":0,
			"byteLength":24,
			"byteOffset":3920
		},
		{
			"buffer":0,
			"byteLength":640,
			"byteOffset":3944
		},
		{
			"buffer":0,
			"byteLength":24,
			"byteOffset":4584
		},
		{
			"buffer":0,
			"byteLength":320,
			"byteOffset":4608
		}
	],
	"buffers":[
		{
			"byteLength":4928,
			"uri":"untitled.bin"
		}
	]
}
